# xmcd
# 
# Track frame offsets:
#     150
#     24470
#     47579
#     64240
#     80835
#     96887
#     137983
#     160060
# 
# Disc length: 2313
# 
# Revision: 0
# Processed by: cddbd v1.5.2PL0 Copyright (c) Steve Scherf et al.
# Submitted via: BonkEnc v1.0.8
# 
DISCID=68090708
DTITLE=Atlantis - Atlantis
DYEAR=1972
DGENRE=Rock
TTITLE0=Get Up
TTITLE1=Big Brother
TTITLE2=Rock 'N' Roll Preacher
TTITLE3=Maybe It's Useless
TTITLE4=Let's Get On The Road Again
TTITLE5=Living At The End Of Time
TTITLE6=Words Of Love
TTITLE7=Mainline Florida
EXTD=
EXTT0=
EXTT1=
EXTT2=
EXTT3=
EXTT4=
EXTT5=
EXTT6=
EXTT7=
PLAYORDER=
